<?xml version="1.0" encoding="UTF-8" standalone="no"?>
<!DOCTYPE svg PUBLIC "-//W3C//DTD SVG 1.1//EN"
 "http://www.w3.org/Graphics/SVG/1.1/DTD/svg11.dtd">
<!-- Generated by graphviz version 2.26.0 (20091210.2329)
 -->
<!-- Title: snakemake_dag Pages: 1 -->
<svg width="544pt" height="620pt"
 viewBox="0.00 0.00 544.00 620.00" xmlns="http://www.w3.org/2000/svg" xmlns:xlink="http://www.w3.org/1999/xlink">
<g id="graph1" class="graph" transform="scale(1 1) rotate(0) translate(4 616)">
<title>snakemake_dag</title>
<polygon fill="white" stroke="white" points="-4,5 -4,-616 541,-616 541,5 -4,5"/>
<!-- 0 -->
<g id="node1" class="node"><title>0</title>
<polyline fill="none" stroke="#5692d8" stroke-width="2" points="327,-36 297,-36 "/>
<path fill="none" stroke="#5692d8" stroke-width="2" d="M297,-36C291,-36 285,-30 285,-24"/>
<polyline fill="none" stroke="#5692d8" stroke-width="2" points="285,-24 285,-12 "/>
<path fill="none" stroke="#5692d8" stroke-width="2" d="M285,-12C285,-6 291,-1.61846e-14 297,-1.46056e-14"/>
<polyline fill="none" stroke="#5692d8" stroke-width="2" points="297,-1.46056e-14 327,-6.71068e-15 "/>
<path fill="none" stroke="#5692d8" stroke-width="2" d="M327,-6.71068e-15C333,-5.1317e-15 339,-6 339,-12"/>
<polyline fill="none" stroke="#5692d8" stroke-width="2" points="339,-12 339,-24 "/>
<path fill="none" stroke="#5692d8" stroke-width="2" d="M339,-24C339,-30 333,-36 327,-36"/>
<text text-anchor="middle" x="312" y="-15.5" font-family="sans" font-size="10.00">all</text>
</g>
<!-- 1 -->
<g id="node2" class="node"><title>1</title>
<polyline fill="none" stroke="#56c9d8" stroke-width="2" points="244,-108 182,-108 "/>
<path fill="none" stroke="#56c9d8" stroke-width="2" d="M182,-108C176,-108 170,-102 170,-96"/>
<polyline fill="none" stroke="#56c9d8" stroke-width="2" points="170,-96 170,-84 "/>
<path fill="none" stroke="#56c9d8" stroke-width="2" d="M170,-84C170,-78 176,-72 182,-72"/>
<polyline fill="none" stroke="#56c9d8" stroke-width="2" points="182,-72 244,-72 "/>
<path fill="none" stroke="#56c9d8" stroke-width="2" d="M244,-72C250,-72 256,-78 256,-84"/>
<polyline fill="none" stroke="#56c9d8" stroke-width="2" points="256,-84 256,-96 "/>
<path fill="none" stroke="#56c9d8" stroke-width="2" d="M256,-96C256,-102 250,-108 244,-108"/>
<text text-anchor="middle" x="213" y="-87.5" font-family="sans" font-size="10.00">HC_indexVcfs</text>
</g>
<!-- 1&#45;&gt;0 -->
<g id="edge4" class="edge"><title>1&#45;&gt;0</title>
<path fill="none" stroke="grey" stroke-width="2" d="M237.982,-71.8314C250.293,-62.8779 265.311,-51.9558 278.594,-42.2955"/>
<polygon fill="grey" stroke="grey" points="280.997,-44.8752 287.026,-36.1628 276.88,-39.214 280.997,-44.8752"/>
</g>
<!-- 2 -->
<g id="node3" class="node"><title>2</title>
<polyline fill="none" stroke="#56d8a9" stroke-width="2" points="490,-108 352,-108 "/>
<path fill="none" stroke="#56d8a9" stroke-width="2" d="M352,-108C346,-108 340,-102 340,-96"/>
<polyline fill="none" stroke="#56d8a9" stroke-width="2" points="340,-96 340,-84 "/>
<path fill="none" stroke="#56d8a9" stroke-width="2" d="M340,-84C340,-78 346,-72 352,-72"/>
<polyline fill="none" stroke="#56d8a9" stroke-width="2" points="352,-72 490,-72 "/>
<path fill="none" stroke="#56d8a9" stroke-width="2" d="M490,-72C496,-72 502,-78 502,-84"/>
<polyline fill="none" stroke="#56d8a9" stroke-width="2" points="502,-84 502,-96 "/>
<path fill="none" stroke="#56d8a9" stroke-width="2" d="M502,-96C502,-102 496,-108 490,-108"/>
<text text-anchor="middle" x="421" y="-87.5" font-family="sans" font-size="10.00">DV_compress_merged_gvcfs</text>
</g>
<!-- 2&#45;&gt;0 -->
<g id="edge6" class="edge"><title>2&#45;&gt;0</title>
<path fill="none" stroke="grey" stroke-width="2" d="M393.495,-71.8314C379.577,-62.6377 362.516,-51.3684 347.608,-41.5208"/>
<polygon fill="grey" stroke="grey" points="349.392,-38.5047 339.119,-35.9134 345.534,-44.3455 349.392,-38.5047"/>
</g>
<!-- 3 -->
<g id="node4" class="node"><title>3</title>
<polyline fill="none" stroke="#5673d8" stroke-width="2" points="349,-324 275,-324 "/>
<path fill="none" stroke="#5673d8" stroke-width="2" d="M275,-324C269,-324 263,-318 263,-312"/>
<polyline fill="none" stroke="#5673d8" stroke-width="2" points="263,-312 263,-300 "/>
<path fill="none" stroke="#5673d8" stroke-width="2" d="M263,-300C263,-294 269,-288 275,-288"/>
<polyline fill="none" stroke="#5673d8" stroke-width="2" points="275,-288 349,-288 "/>
<path fill="none" stroke="#5673d8" stroke-width="2" d="M349,-288C355,-288 361,-294 361,-300"/>
<polyline fill="none" stroke="#5673d8" stroke-width="2" points="361,-300 361,-312 "/>
<path fill="none" stroke="#5673d8" stroke-width="2" d="M361,-312C361,-318 355,-324 349,-324"/>
<text text-anchor="middle" x="312" y="-303.5" font-family="sans" font-size="10.00">DV_concat_vcfs</text>
</g>
<!-- 3&#45;&gt;0 -->
<g id="edge2" class="edge"><title>3&#45;&gt;0</title>
<path fill="none" stroke="grey" stroke-width="2" d="M312,-287.984C312,-239.294 312,-104.796 312,-46.0573"/>
<polygon fill="grey" stroke="grey" points="315.5,-46.0088 312,-36.0089 308.5,-46.0089 315.5,-46.0088"/>
</g>
<!-- 4 -->
<g id="node5" class="node"><title>4</title>
<polyline fill="none" stroke="#56d8c9" stroke-width="2" points="112,-180 12,-180 "/>
<path fill="none" stroke="#56d8c9" stroke-width="2" d="M12,-180C6,-180 4.73695e-14,-174 3.78956e-14,-168"/>
<polyline fill="none" stroke="#56d8c9" stroke-width="2" points="3.78956e-14,-168 1.89478e-14,-156 "/>
<path fill="none" stroke="#56d8c9" stroke-width="2" d="M1.89478e-14,-156C9.4739e-15,-150 6,-144 12,-144"/>
<polyline fill="none" stroke="#56d8c9" stroke-width="2" points="12,-144 112,-144 "/>
<path fill="none" stroke="#56d8c9" stroke-width="2" d="M112,-144C118,-144 124,-150 124,-156"/>
<polyline fill="none" stroke="#56d8c9" stroke-width="2" points="124,-156 124,-168 "/>
<path fill="none" stroke="#56d8c9" stroke-width="2" d="M124,-168C124,-174 118,-180 112,-180"/>
<text text-anchor="middle" x="62" y="-159.5" font-family="sans" font-size="10.00">HC_gatherVCFs_gatk</text>
</g>
<!-- 4&#45;&gt;1 -->
<g id="edge10" class="edge"><title>4&#45;&gt;1</title>
<path fill="none" stroke="grey" stroke-width="2" d="M100.104,-143.831C120.12,-134.287 144.827,-122.506 166.019,-112.401"/>
<polygon fill="grey" stroke="grey" points="167.65,-115.501 175.17,-108.038 164.638,-109.183 167.65,-115.501"/>
</g>
<!-- 5 -->
<g id="node6" class="node"><title>5</title>
<polyline fill="none" stroke="#70d856" stroke-width="2" points="272,-180 154,-180 "/>
<path fill="none" stroke="#70d856" stroke-width="2" d="M154,-180C148,-180 142,-174 142,-168"/>
<polyline fill="none" stroke="#70d856" stroke-width="2" points="142,-168 142,-156 "/>
<path fill="none" stroke="#70d856" stroke-width="2" d="M142,-156C142,-150 148,-144 154,-144"/>
<polyline fill="none" stroke="#70d856" stroke-width="2" points="154,-144 272,-144 "/>
<path fill="none" stroke="#70d856" stroke-width="2" d="M272,-144C278,-144 284,-150 284,-156"/>
<polyline fill="none" stroke="#70d856" stroke-width="2" points="284,-156 284,-168 "/>
<path fill="none" stroke="#70d856" stroke-width="2" d="M284,-168C284,-174 278,-180 272,-180"/>
<text text-anchor="middle" x="213" y="-159.5" font-family="sans" font-size="10.00">HC_gatherVCFs_bcftools</text>
</g>
<!-- 5&#45;&gt;1 -->
<g id="edge8" class="edge"><title>5&#45;&gt;1</title>
<path fill="none" stroke="grey" stroke-width="2" d="M213,-143.831C213,-136.131 213,-126.974 213,-118.417"/>
<polygon fill="grey" stroke="grey" points="216.5,-118.413 213,-108.413 209.5,-118.413 216.5,-118.413"/>
</g>
<!-- 6 -->
<g id="node7" class="node"><title>6</title>
<polyline fill="none" stroke="#c6d856" stroke-width="2" points="467,-180 375,-180 "/>
<path fill="none" stroke="#c6d856" stroke-width="2" d="M375,-180C369,-180 363,-174 363,-168"/>
<polyline fill="none" stroke="#c6d856" stroke-width="2" points="363,-168 363,-156 "/>
<path fill="none" stroke="#c6d856" stroke-width="2" d="M363,-156C363,-150 369,-144 375,-144"/>
<polyline fill="none" stroke="#c6d856" stroke-width="2" points="375,-144 467,-144 "/>
<path fill="none" stroke="#c6d856" stroke-width="2" d="M467,-144C473,-144 479,-150 479,-156"/>
<polyline fill="none" stroke="#c6d856" stroke-width="2" points="479,-156 479,-168 "/>
<path fill="none" stroke="#c6d856" stroke-width="2" d="M479,-168C479,-174 473,-180 467,-180"/>
<text text-anchor="middle" x="421" y="-159.5" font-family="sans" font-size="10.00">DV_GLmerge_gvcfs</text>
</g>
<!-- 6&#45;&gt;2 -->
<g id="edge12" class="edge"><title>6&#45;&gt;2</title>
<path fill="none" stroke="grey" stroke-width="2" d="M421,-143.831C421,-136.131 421,-126.974 421,-118.417"/>
<polygon fill="grey" stroke="grey" points="424.5,-118.413 421,-108.413 417.5,-118.413 424.5,-118.413"/>
</g>
<!-- 7 -->
<g id="node8" class="node"><title>7</title>
<polyline fill="none" stroke="#59d856" stroke-width="2" points="435,-468 315,-468 "/>
<path fill="none" stroke="#59d856" stroke-width="2" d="M315,-468C309,-468 303,-462 303,-456"/>
<polyline fill="none" stroke="#59d856" stroke-width="2" points="303,-456 303,-444 "/>
<path fill="none" stroke="#59d856" stroke-width="2" d="M303,-444C303,-438 309,-432 315,-432"/>
<polyline fill="none" stroke="#59d856" stroke-width="2" points="315,-432 435,-432 "/>
<path fill="none" stroke="#59d856" stroke-width="2" d="M435,-432C441,-432 447,-438 447,-444"/>
<polyline fill="none" stroke="#59d856" stroke-width="2" points="447,-444 447,-456 "/>
<path fill="none" stroke="#59d856" stroke-width="2" d="M447,-456C447,-462 441,-468 435,-468"/>
<text text-anchor="middle" x="375" y="-447.5" font-family="sans" font-size="10.00">DV_postprocess_variants</text>
</g>
<!-- 7&#45;&gt;3 -->
<g id="edge14" class="edge"><title>7&#45;&gt;3</title>
<path fill="none" stroke="grey" stroke-width="2" d="M325.471,-431.946C309.675,-423.565 293.978,-411.857 285,-396 273.81,-376.237 282.776,-351.352 293.285,-332.761"/>
<polygon fill="grey" stroke="grey" points="296.29,-334.555 298.486,-324.19 290.306,-330.924 296.29,-334.555"/>
</g>
<!-- 8 -->
<g id="node9" class="node"><title>8</title>
<polyline fill="none" stroke="#56d873" stroke-width="2" points="372,-396 306,-396 "/>
<path fill="none" stroke="#56d873" stroke-width="2" d="M306,-396C300,-396 294,-390 294,-384"/>
<polyline fill="none" stroke="#56d873" stroke-width="2" points="294,-384 294,-372 "/>
<path fill="none" stroke="#56d873" stroke-width="2" d="M294,-372C294,-366 300,-360 306,-360"/>
<polyline fill="none" stroke="#56d873" stroke-width="2" points="306,-360 372,-360 "/>
<path fill="none" stroke="#56d873" stroke-width="2" d="M372,-360C378,-360 384,-366 384,-372"/>
<polyline fill="none" stroke="#56d873" stroke-width="2" points="384,-372 384,-384 "/>
<path fill="none" stroke="#56d873" stroke-width="2" d="M384,-384C384,-390 378,-396 372,-396"/>
<text text-anchor="middle" x="339" y="-375.5" font-family="sans" font-size="10.00">DV_index_vcfs</text>
</g>
<!-- 7&#45;&gt;8 -->
<g id="edge30" class="edge"><title>7&#45;&gt;8</title>
<path fill="none" stroke="grey" stroke-width="2" d="M365.916,-431.831C361.939,-423.877 357.185,-414.369 352.786,-405.572"/>
<polygon fill="grey" stroke="grey" points="355.809,-403.792 348.207,-396.413 349.548,-406.923 355.809,-403.792"/>
</g>
<!-- 11 -->
<g id="node12" class="node"><title>11</title>
<polyline fill="none" stroke="#56d892" stroke-width="2" points="487,-324 407,-324 "/>
<path fill="none" stroke="#56d892" stroke-width="2" d="M407,-324C401,-324 395,-318 395,-312"/>
<polyline fill="none" stroke="#56d892" stroke-width="2" points="395,-312 395,-300 "/>
<path fill="none" stroke="#56d892" stroke-width="2" d="M395,-300C395,-294 401,-288 407,-288"/>
<polyline fill="none" stroke="#56d892" stroke-width="2" points="407,-288 487,-288 "/>
<path fill="none" stroke="#56d892" stroke-width="2" d="M487,-288C493,-288 499,-294 499,-300"/>
<polyline fill="none" stroke="#56d892" stroke-width="2" points="499,-300 499,-312 "/>
<path fill="none" stroke="#56d892" stroke-width="2" d="M499,-312C499,-318 493,-324 487,-324"/>
<text text-anchor="middle" x="447" y="-303.5" font-family="sans" font-size="10.00">DV_concat_gvcfs</text>
</g>
<!-- 7&#45;&gt;11 -->
<g id="edge36" class="edge"><title>7&#45;&gt;11</title>
<path fill="none" stroke="grey" stroke-width="2" d="M384.119,-431.762C396.562,-406.876 418.959,-362.082 433.392,-333.216"/>
<polygon fill="grey" stroke="grey" points="436.614,-334.599 437.955,-324.09 430.353,-331.469 436.614,-334.599"/>
</g>
<!-- 15 -->
<g id="node16" class="node"><title>15</title>
<polyline fill="none" stroke="#d8ac56" stroke-width="2" points="524,-396 452,-396 "/>
<path fill="none" stroke="#d8ac56" stroke-width="2" d="M452,-396C446,-396 440,-390 440,-384"/>
<polyline fill="none" stroke="#d8ac56" stroke-width="2" points="440,-384 440,-372 "/>
<path fill="none" stroke="#d8ac56" stroke-width="2" d="M440,-372C440,-366 446,-360 452,-360"/>
<polyline fill="none" stroke="#d8ac56" stroke-width="2" points="452,-360 524,-360 "/>
<path fill="none" stroke="#d8ac56" stroke-width="2" d="M524,-360C530,-360 536,-366 536,-372"/>
<polyline fill="none" stroke="#d8ac56" stroke-width="2" points="536,-372 536,-384 "/>
<path fill="none" stroke="#d8ac56" stroke-width="2" d="M536,-384C536,-390 530,-396 524,-396"/>
<text text-anchor="middle" x="488" y="-375.5" font-family="sans" font-size="10.00">DV_index_gvcfs</text>
</g>
<!-- 7&#45;&gt;15 -->
<g id="edge44" class="edge"><title>7&#45;&gt;15</title>
<path fill="none" stroke="grey" stroke-width="2" d="M403.515,-431.831C417.834,-422.707 435.362,-411.539 450.734,-401.745"/>
<polygon fill="grey" stroke="grey" points="452.942,-404.488 459.494,-396.163 449.18,-398.585 452.942,-404.488"/>
</g>
<!-- 8&#45;&gt;3 -->
<g id="edge16" class="edge"><title>8&#45;&gt;3</title>
<path fill="none" stroke="grey" stroke-width="2" d="M332.187,-359.831C329.236,-351.962 325.714,-342.571 322.445,-333.853"/>
<polygon fill="grey" stroke="grey" points="325.693,-332.548 318.905,-324.413 319.139,-335.006 325.693,-332.548"/>
</g>
<!-- 9 -->
<g id="node10" class="node"><title>9</title>
<polyline fill="none" stroke="#d85656" stroke-width="2" points="181,-252 87,-252 "/>
<path fill="none" stroke="#d85656" stroke-width="2" d="M87,-252C81,-252 75,-246 75,-240"/>
<polyline fill="none" stroke="#d85656" stroke-width="2" points="75,-240 75,-228 "/>
<path fill="none" stroke="#d85656" stroke-width="2" d="M75,-228C75,-222 81,-216 87,-216"/>
<polyline fill="none" stroke="#d85656" stroke-width="2" points="87,-216 181,-216 "/>
<path fill="none" stroke="#d85656" stroke-width="2" d="M181,-216C187,-216 193,-222 193,-228"/>
<polyline fill="none" stroke="#d85656" stroke-width="2" points="193,-228 193,-240 "/>
<path fill="none" stroke="#d85656" stroke-width="2" d="M193,-240C193,-246 187,-252 181,-252"/>
<text text-anchor="middle" x="134" y="-231.5" font-family="sans" font-size="10.00">HC_genotypeGVCFs</text>
</g>
<!-- 9&#45;&gt;4 -->
<g id="edge18" class="edge"><title>9&#45;&gt;4</title>
<path fill="none" stroke="grey" stroke-width="2" d="M115.831,-215.831C107.285,-207.285 96.9443,-196.944 87.6198,-187.62"/>
<polygon fill="grey" stroke="grey" points="89.9592,-185.009 80.4133,-180.413 85.0095,-189.959 89.9592,-185.009"/>
</g>
<!-- 9&#45;&gt;5 -->
<g id="edge20" class="edge"><title>9&#45;&gt;5</title>
<path fill="none" stroke="grey" stroke-width="2" d="M153.935,-215.831C163.478,-207.134 175.06,-196.578 185.431,-187.127"/>
<polygon fill="grey" stroke="grey" points="188.038,-189.486 193.071,-180.163 183.323,-184.312 188.038,-189.486"/>
</g>
<!-- 10 -->
<g id="node11" class="node"><title>10</title>
<polyline fill="none" stroke="#d8cb56" stroke-width="2" points="512,-252 414,-252 "/>
<path fill="none" stroke="#d8cb56" stroke-width="2" d="M414,-252C408,-252 402,-246 402,-240"/>
<polyline fill="none" stroke="#d8cb56" stroke-width="2" points="402,-240 402,-228 "/>
<path fill="none" stroke="#d8cb56" stroke-width="2" d="M402,-228C402,-222 408,-216 414,-216"/>
<polyline fill="none" stroke="#d8cb56" stroke-width="2" points="414,-216 512,-216 "/>
<path fill="none" stroke="#d8cb56" stroke-width="2" d="M512,-216C518,-216 524,-222 524,-228"/>
<polyline fill="none" stroke="#d8cb56" stroke-width="2" points="524,-228 524,-240 "/>
<path fill="none" stroke="#d8cb56" stroke-width="2" d="M524,-240C524,-246 518,-252 512,-252"/>
<text text-anchor="middle" x="463" y="-231.5" font-family="sans" font-size="10.00">DV_create_manifest</text>
</g>
<!-- 10&#45;&gt;6 -->
<g id="edge24" class="edge"><title>10&#45;&gt;6</title>
<path fill="none" stroke="grey" stroke-width="2" d="M452.402,-215.831C447.712,-207.792 442.097,-198.167 436.92,-189.292"/>
<polygon fill="grey" stroke="grey" points="439.803,-187.288 431.741,-180.413 433.757,-190.815 439.803,-187.288"/>
</g>
<!-- 11&#45;&gt;6 -->
<g id="edge22" class="edge"><title>11&#45;&gt;6</title>
<path fill="none" stroke="grey" stroke-width="2" d="M421.495,-287.963C410.525,-278.628 398.886,-266.209 393,-252 384.468,-231.402 392.949,-207.235 402.751,-189.134"/>
<polygon fill="grey" stroke="grey" points="405.904,-190.674 407.914,-180.272 399.856,-187.151 405.904,-190.674"/>
</g>
<!-- 11&#45;&gt;10 -->
<g id="edge34" class="edge"><title>11&#45;&gt;10</title>
<path fill="none" stroke="grey" stroke-width="2" d="M451.037,-287.831C452.749,-280.131 454.783,-270.974 456.685,-262.417"/>
<polygon fill="grey" stroke="grey" points="460.155,-262.934 458.908,-252.413 453.322,-261.416 460.155,-262.934"/>
</g>
<!-- 12 -->
<g id="node13" class="node"><title>12</title>
<polyline fill="none" stroke="#56a9d8" stroke-width="2" points="421,-612 327,-612 "/>
<path fill="none" stroke="#56a9d8" stroke-width="2" d="M327,-612C321,-612 315,-606 315,-600"/>
<polyline fill="none" stroke="#56a9d8" stroke-width="2" points="315,-600 315,-588 "/>
<path fill="none" stroke="#56a9d8" stroke-width="2" d="M315,-588C315,-582 321,-576 327,-576"/>
<polyline fill="none" stroke="#56a9d8" stroke-width="2" points="327,-576 421,-576 "/>
<path fill="none" stroke="#56a9d8" stroke-width="2" d="M421,-576C427,-576 433,-582 433,-588"/>
<polyline fill="none" stroke="#56a9d8" stroke-width="2" points="433,-588 433,-600 "/>
<path fill="none" stroke="#56a9d8" stroke-width="2" d="M433,-600C433,-606 427,-612 421,-612"/>
<text text-anchor="middle" x="374" y="-591.5" font-family="sans" font-size="10.00">DV_make_examples</text>
</g>
<!-- 12&#45;&gt;7 -->
<g id="edge28" class="edge"><title>12&#45;&gt;7</title>
<path fill="none" stroke="grey" stroke-width="2" d="M365.908,-575.917C361.744,-565.618 357.108,-552.344 355,-540 352.306,-524.228 352.177,-519.749 355,-504 356.597,-495.088 359.567,-485.724 362.739,-477.342"/>
<polygon fill="grey" stroke="grey" points="365.996,-478.624 366.485,-468.041 359.503,-476.009 365.996,-478.624"/>
</g>
<!-- 13 -->
<g id="node14" class="node"><title>13</title>
<polyline fill="none" stroke="#d87556" stroke-width="2" points="450,-540 376,-540 "/>
<path fill="none" stroke="#d87556" stroke-width="2" d="M376,-540C370,-540 364,-534 364,-528"/>
<polyline fill="none" stroke="#d87556" stroke-width="2" points="364,-528 364,-516 "/>
<path fill="none" stroke="#d87556" stroke-width="2" d="M364,-516C364,-510 370,-504 376,-504"/>
<polyline fill="none" stroke="#d87556" stroke-width="2" points="376,-504 450,-504 "/>
<path fill="none" stroke="#d87556" stroke-width="2" d="M450,-504C456,-504 462,-510 462,-516"/>
<polyline fill="none" stroke="#d87556" stroke-width="2" points="462,-516 462,-528 "/>
<path fill="none" stroke="#d87556" stroke-width="2" d="M462,-528C462,-534 456,-540 450,-540"/>
<text text-anchor="middle" x="413" y="-519.5" font-family="sans" font-size="10.00">DV_call_variants</text>
</g>
<!-- 12&#45;&gt;13 -->
<g id="edge40" class="edge"><title>12&#45;&gt;13</title>
<path fill="none" stroke="grey" stroke-width="2" d="M383.841,-575.831C388.196,-567.792 393.41,-558.167 398.217,-549.292"/>
<polygon fill="grey" stroke="grey" points="401.341,-550.873 403.026,-540.413 395.186,-547.539 401.341,-550.873"/>
</g>
<!-- 13&#45;&gt;7 -->
<g id="edge26" class="edge"><title>13&#45;&gt;7</title>
<path fill="none" stroke="grey" stroke-width="2" d="M403.411,-503.831C399.168,-495.792 394.088,-486.167 389.404,-477.292"/>
<polygon fill="grey" stroke="grey" points="392.481,-475.623 384.718,-468.413 386.29,-478.891 392.481,-475.623"/>
</g>
<!-- 14 -->
<g id="node15" class="node"><title>14</title>
<polyline fill="none" stroke="#8fd856" stroke-width="2" points="189,-324 79,-324 "/>
<path fill="none" stroke="#8fd856" stroke-width="2" d="M79,-324C73,-324 67,-318 67,-312"/>
<polyline fill="none" stroke="#8fd856" stroke-width="2" points="67,-312 67,-300 "/>
<path fill="none" stroke="#8fd856" stroke-width="2" d="M67,-300C67,-294 73,-288 79,-288"/>
<polyline fill="none" stroke="#8fd856" stroke-width="2" points="79,-288 189,-288 "/>
<path fill="none" stroke="#8fd856" stroke-width="2" d="M189,-288C195,-288 201,-294 201,-300"/>
<polyline fill="none" stroke="#8fd856" stroke-width="2" points="201,-300 201,-312 "/>
<path fill="none" stroke="#8fd856" stroke-width="2" d="M201,-312C201,-318 195,-324 189,-324"/>
<text text-anchor="middle" x="134" y="-303.5" font-family="sans" font-size="10.00">HC_genomicsDBImport</text>
</g>
<!-- 14&#45;&gt;9 -->
<g id="edge32" class="edge"><title>14&#45;&gt;9</title>
<path fill="none" stroke="grey" stroke-width="2" d="M134,-287.831C134,-280.131 134,-270.974 134,-262.417"/>
<polygon fill="grey" stroke="grey" points="137.5,-262.413 134,-252.413 130.5,-262.413 137.5,-262.413"/>
</g>
<!-- 15&#45;&gt;11 -->
<g id="edge38" class="edge"><title>15&#45;&gt;11</title>
<path fill="none" stroke="grey" stroke-width="2" d="M477.654,-359.831C473.076,-351.792 467.595,-342.167 462.541,-333.292"/>
<polygon fill="grey" stroke="grey" points="465.475,-331.371 457.485,-324.413 459.392,-334.835 465.475,-331.371"/>
</g>
<!-- 16 -->
<g id="node17" class="node"><title>16</title>
<polyline fill="none" stroke="#d88d56" stroke-width="2" points="181,-396 87,-396 "/>
<path fill="none" stroke="#d88d56" stroke-width="2" d="M87,-396C81,-396 75,-390 75,-384"/>
<polyline fill="none" stroke="#d88d56" stroke-width="2" points="75,-384 75,-372 "/>
<path fill="none" stroke="#d88d56" stroke-width="2" d="M75,-372C75,-366 81,-360 87,-360"/>
<polyline fill="none" stroke="#d88d56" stroke-width="2" points="87,-360 181,-360 "/>
<path fill="none" stroke="#d88d56" stroke-width="2" d="M181,-360C187,-360 193,-366 193,-372"/>
<polyline fill="none" stroke="#d88d56" stroke-width="2" points="193,-372 193,-384 "/>
<path fill="none" stroke="#d88d56" stroke-width="2" d="M193,-384C193,-390 187,-396 181,-396"/>
<text text-anchor="middle" x="134" y="-375.5" font-family="sans" font-size="10.00">HC_compress_gvcfs</text>
</g>
<!-- 16&#45;&gt;14 -->
<g id="edge42" class="edge"><title>16&#45;&gt;14</title>
<path fill="none" stroke="grey" stroke-width="2" d="M134,-359.831C134,-352.131 134,-342.974 134,-334.417"/>
<polygon fill="grey" stroke="grey" points="137.5,-334.413 134,-324.413 130.5,-334.413 137.5,-334.413"/>
</g>
<!-- 17 -->
<g id="node18" class="node"><title>17</title>
<polyline fill="none" stroke="#afd856" stroke-width="2" points="171,-468 97,-468 "/>
<path fill="none" stroke="#afd856" stroke-width="2" d="M97,-468C91,-468 85,-462 85,-456"/>
<polyline fill="none" stroke="#afd856" stroke-width="2" points="85,-456 85,-444 "/>
<path fill="none" stroke="#afd856" stroke-width="2" d="M85,-444C85,-438 91,-432 97,-432"/>
<polyline fill="none" stroke="#afd856" stroke-width="2" points="97,-432 171,-432 "/>
<path fill="none" stroke="#afd856" stroke-width="2" d="M171,-432C177,-432 183,-438 183,-444"/>
<polyline fill="none" stroke="#afd856" stroke-width="2" points="183,-444 183,-456 "/>
<path fill="none" stroke="#afd856" stroke-width="2" d="M183,-456C183,-462 177,-468 171,-468"/>
<text text-anchor="middle" x="134" y="-447.5" font-family="sans" font-size="10.00">HC_call_variants</text>
</g>
<!-- 17&#45;&gt;16 -->
<g id="edge46" class="edge"><title>17&#45;&gt;16</title>
<path fill="none" stroke="grey" stroke-width="2" d="M134,-431.831C134,-424.131 134,-414.974 134,-406.417"/>
<polygon fill="grey" stroke="grey" points="137.5,-406.413 134,-396.413 130.5,-406.413 137.5,-406.413"/>
</g>
</g>
</svg>
